<svg xmlns="http://www.w3.org/2000/svg" viewBox="0 0 367.03 198.7"><defs><style>.cls-1{fill:#2196f3;}.cls-2{fill:#fff;}.cls-3{fill:#e6e6e6;}.cls-4{fill:#218ec7;}</style></defs><g id="Layer_2" data-name="Layer 2"><g id="Layer_1-2" data-name="Layer 1"><path class="cls-1" d="M92,91.84c0-5.27.49-13.1.74-18.37h-.49c-2.58,4.65-5.88,9.31-8.7,14l-8.08,13.22h45.06v15.92H55.6V101.88l30-45.55h26V134H92Z"/><path class="cls-1" d="M277,91.84c0-5.27.49-13.1.73-18.37h-.49c-2.57,4.65-5.87,9.31-8.69,14l-8.08,13.22h45.06v15.92H240.62V101.88l30-45.55h26V134H277Z"/><circle class="cls-2" cx="181.17" cy="94.41" r="43.6"/><path class="cls-1" d="M181.17,140a45.6,45.6,0,1,1,45.6-45.6A45.65,45.65,0,0,1,181.17,140Zm0-87.2a41.6,41.6,0,1,0,41.6,41.6A41.64,41.64,0,0,0,181.17,52.81Z"/><circle class="cls-3" cx="164.87" cy="73.98" r="6.02"/><path class="cls-1" d="M164.87,81a7,7,0,1,1,7-7A7,7,0,0,1,164.87,81Zm0-12.05a5,5,0,1,0,5,5A5,5,0,0,0,164.87,69Z"/><circle class="cls-3" cx="198.74" cy="109.94" r="14.4"/><path class="cls-1" d="M198.74,125.34a15.4,15.4,0,1,1,15.4-15.4A15.42,15.42,0,0,1,198.74,125.34Zm0-28.8a13.4,13.4,0,1,0,13.4,13.4A13.41,13.41,0,0,0,198.74,96.54Z"/><circle class="cls-3" cx="164.87" cy="119.12" r="6.41"/><path class="cls-1" d="M164.87,126.53a7.42,7.42,0,1,1,7.42-7.41A7.43,7.43,0,0,1,164.87,126.53Zm0-12.83a5.42,5.42,0,1,0,5.42,5.42A5.42,5.42,0,0,0,164.87,113.7Z"/><circle class="cls-3" cx="176.18" cy="91.16" r="4.84"/><path class="cls-1" d="M176.18,97A5.85,5.85,0,1,1,182,91.16,5.86,5.86,0,0,1,176.18,97Zm0-9.69A3.85,3.85,0,1,0,180,91.16,3.84,3.84,0,0,0,176.18,87.32Z"/><circle class="cls-3" cx="192.28" cy="70.86" r="5.1"/><path class="cls-1" d="M192.28,77a6.11,6.11,0,1,1,6.1-6.1A6.11,6.11,0,0,1,192.28,77Zm0-10.21a4.11,4.11,0,1,0,4.1,4.11A4.12,4.12,0,0,0,192.28,66.75Z"/><circle class="cls-3" cx="151.21" cy="105.81" r="4.4"/><path class="cls-1" d="M151.21,111.2a5.4,5.4,0,1,1,5.4-5.39A5.4,5.4,0,0,1,151.21,111.2Zm0-8.79a3.4,3.4,0,1,0,3.4,3.4A3.4,3.4,0,0,0,151.21,102.41Z"/><circle class="cls-3" cx="10.16" cy="24.93" r="9.16"/><path class="cls-1" d="M10.16,35.09A10.17,10.17,0,1,1,20.32,24.93,10.17,10.17,0,0,1,10.16,35.09Zm0-18.33a8.17,8.17,0,1,0,8.16,8.17A8.18,8.18,0,0,0,10.16,16.76Z"/><circle class="cls-3" cx="136.34" cy="7.54" r="6.54"/><path class="cls-4" d="M136.34,15.09a7.55,7.55,0,1,1,7.54-7.55A7.55,7.55,0,0,1,136.34,15.09Zm0-13.09a5.55,5.55,0,1,0,5.54,5.54A5.55,5.55,0,0,0,136.34,2Z"/><circle class="cls-3" cx="37.91" cy="190.11" r="7.59"/><path class="cls-4" d="M37.91,198.7a8.59,8.59,0,1,1,8.59-8.59A8.6,8.6,0,0,1,37.91,198.7Zm0-15.18a6.59,6.59,0,1,0,6.59,6.59A6.6,6.6,0,0,0,37.91,183.52Z"/><circle class="cls-3" cx="155.61" cy="167.28" r="6.54"/><path class="cls-1" d="M155.61,174.83a7.55,7.55,0,1,1,7.54-7.55A7.56,7.56,0,0,1,155.61,174.83Zm0-13.09a5.55,5.55,0,1,0,5.54,5.54A5.55,5.55,0,0,0,155.61,161.74Z"/><circle class="cls-3" cx="361.04" cy="96.89" r="0.88"/><path class="cls-1" d="M361,98.77a1.88,1.88,0,1,1,1.89-1.88A1.88,1.88,0,0,1,361,98.77Zm0-2a.11.11,0,0,0-.11.12c0,.13.23.13.23,0A.12.12,0,0,0,361,96.77Z"/><circle class="cls-3" cx="343.05" cy="53.7" r="2.89"/><path class="cls-1" d="M343.05,57.59a3.89,3.89,0,1,1,3.89-3.89A3.9,3.9,0,0,1,343.05,57.59Zm0-5.78a1.89,1.89,0,1,0,1.89,1.89A1.89,1.89,0,0,0,343.05,51.81Z"/><circle class="cls-3" cx="342.77" cy="119.59" r="1.82"/><path class="cls-4" d="M342.77,122.41a2.82,2.82,0,1,1,2.82-2.82A2.82,2.82,0,0,1,342.77,122.41Zm0-3.64a.82.82,0,1,0,.82.82A.82.82,0,0,0,342.77,118.77Z"/><circle class="cls-3" cx="363.15" cy="157.86" r="2.88"/><path class="cls-1" d="M363.15,161.74a3.88,3.88,0,1,1,3.88-3.88A3.88,3.88,0,0,1,363.15,161.74Zm0-5.76a1.88,1.88,0,1,0,1.88,1.88A1.88,1.88,0,0,0,363.15,156Z"/><circle class="cls-3" cx="248.02" cy="142.88" r="2.62"/><path class="cls-4" d="M248,146.5a3.62,3.62,0,1,1,3.61-3.61A3.62,3.62,0,0,1,248,146.5Zm0-5.23a1.62,1.62,0,1,0,1.61,1.62A1.61,1.61,0,0,0,248,141.27Z"/><circle class="cls-3" cx="228.88" cy="46.52" r="4.48"/><path class="cls-4" d="M228.88,52a5.48,5.48,0,1,1,5.48-5.48A5.49,5.49,0,0,1,228.88,52Zm0-9a3.48,3.48,0,1,0,3.48,3.47A3.48,3.48,0,0,0,228.88,43.05Z"/><circle class="cls-3" cx="290.53" cy="190.11" r="6.54"/><path class="cls-1" d="M290.53,197.65a7.54,7.54,0,1,1,7.54-7.54A7.55,7.55,0,0,1,290.53,197.65Zm0-13.08a5.54,5.54,0,1,0,5.54,5.54A5.55,5.55,0,0,0,290.53,184.57Z"/><circle class="cls-3" cx="6.65" cy="154.46" r="0.88"/><path class="cls-1" d="M6.65,156.34a1.88,1.88,0,1,1,1.89-1.88A1.88,1.88,0,0,1,6.65,156.34Zm0-2a.11.11,0,0,0-.11.12c0,.13.23.13.23,0A.12.12,0,0,0,6.65,154.34Z"/><circle class="cls-3" cx="7.54" cy="105.81" r="2.89"/><path class="cls-1" d="M7.54,109.69a3.89,3.89,0,1,1,3.88-3.88A3.89,3.89,0,0,1,7.54,109.69Zm0-5.77a1.89,1.89,0,1,0,1.88,1.89A1.89,1.89,0,0,0,7.54,103.92Z"/><circle class="cls-3" cx="58.38" cy="147.16" r="1.82"/><path class="cls-1" d="M58.38,150a2.82,2.82,0,1,1,2.82-2.82A2.82,2.82,0,0,1,58.38,150Zm0-3.64a.82.82,0,1,0,.82.82A.82.82,0,0,0,58.38,146.34Z"/><circle class="cls-3" cx="52.79" cy="83.71" r="0.88"/><path class="cls-1" d="M52.79,85.59a1.88,1.88,0,1,1,1.88-1.88A1.88,1.88,0,0,1,52.79,85.59Zm0-2a.12.12,0,0,0-.12.12c0,.13.24.13.24,0A.13.13,0,0,0,52.79,83.59Z"/><circle class="cls-3" cx="73.67" cy="35.06" r="2.89"/><path class="cls-1" d="M73.67,39a3.89,3.89,0,1,1,3.89-3.89A3.9,3.9,0,0,1,73.67,39Zm0-5.78a1.89,1.89,0,1,0,1.89,1.89A1.89,1.89,0,0,0,73.67,33.17Z"/><circle class="cls-3" cx="269.35" cy="24.93" r="7.59"/><path class="cls-4" d="M269.35,33.52a8.59,8.59,0,1,1,8.59-8.59A8.61,8.61,0,0,1,269.35,33.52Zm0-15.18a6.59,6.59,0,1,0,6.59,6.59A6.6,6.6,0,0,0,269.35,18.34Z"/></g></g></svg>