<svg width="160" height="30" viewBox="0 0 160 30" fill="none" xmlns="http://www.w3.org/2000/svg">
<path d="M26.7302 2.67313C26.2565 1.8591 25.5773 1.18375 24.7606 0.71464C23.9438 0.245528 23.0183 -0.000895177 22.0764 2.71605e-05H10.9492C10.0091 -0.00297355 9.08499 0.242717 8.2705 0.712176C7.45602 1.18164 6.78019 1.85816 6.31156 2.67313L0.723814 12.3188C0.249806 13.1299 0 14.0525 0 14.992C0 15.9314 0.249806 16.854 0.723814 17.6651L6.27936 27.3269C6.74798 28.1418 7.42381 28.8184 8.2383 29.2878C9.05278 29.7573 9.97694 30.003 10.917 30H22.0442C22.9861 30.0009 23.9116 29.7545 24.7283 29.2854C25.5451 28.8162 26.2243 28.1409 26.698 27.3269L32.2535 17.6651C32.7212 16.8518 32.9673 15.9301 32.9673 14.992C32.9673 14.0538 32.7212 13.1321 32.2535 12.3188L26.7302 2.67313ZM30.7399 16.7794L25.1682 26.4412C24.858 26.9785 24.4121 27.4249 23.8752 27.7358C23.3382 28.0467 22.7291 28.2111 22.1086 28.2125H10.9492C10.3301 28.2047 9.72341 28.0376 9.18756 27.7274C8.6517 27.4172 8.20473 26.9742 7.88966 26.4412L2.33412 16.7794C2.01717 16.237 1.85014 15.6201 1.85014 14.992C1.85014 14.3638 2.01717 13.7469 2.33412 13.2045L7.88966 3.54269C8.20153 3.00562 8.64737 2.55861 9.18363 2.24532C9.71988 1.93203 10.3282 1.76318 10.9492 1.75526H22.0764C22.6981 1.75999 23.3077 1.92751 23.8445 2.24111C24.3813 2.55472 24.8266 3.00347 25.136 3.54269L30.7076 13.2045C31.0248 13.7457 31.1946 14.3605 31.2002 14.9877C31.2059 15.6149 31.0472 16.2326 30.7399 16.7794Z" fill="white"/>
<path d="M25.9408 19.8229C25.6349 19.4686 25.2162 18.9855 24.717 18.3575C23.7991 17.1981 23.3321 16.6023 23.3805 16.1675C23.3805 15.2657 24.5238 15.2496 24.8941 13.9292C24.8941 13.7681 25.2323 12.7536 24.7331 12.2061C24.2339 11.6586 24.089 11.9968 23.8796 11.6425C23.6703 11.2883 24.0246 10.7086 23.7186 10.2899C23.4127 9.8712 23.2033 10.145 22.9618 9.8551C22.7202 9.56524 23.1067 8.77619 22.7363 8.24479C22.366 7.71339 22.1888 8.06766 21.9312 7.71339C21.6735 7.35912 21.9312 6.81162 21.6574 6.26412C21.5469 6.09001 21.4008 5.94119 21.2287 5.82742C21.0567 5.71365 20.8625 5.63748 20.659 5.60389C20.2115 5.50593 19.7434 5.58684 19.3547 5.82934L18.1792 6.60228L17.7766 6.23191C17.4895 5.97145 17.1398 5.78998 16.7615 5.7053C16.3833 5.62062 15.9895 5.63561 15.6188 5.74882L13.0101 6.61838C12.8748 6.66222 12.7529 6.73981 12.6558 6.84382L12.3499 6.715C11.9338 6.55327 11.4732 6.5473 11.0531 6.69821C10.6329 6.84911 10.2814 7.14673 10.0632 7.53626C9.93833 7.75085 9.8595 7.98913 9.83177 8.23588C9.80405 8.48263 9.82804 8.73246 9.90222 8.96942C9.93911 9.09952 9.99327 9.22409 10.0632 9.3398C9.67883 9.44931 9.34888 9.69789 9.13756 10.0372C8.92625 10.3765 8.84868 10.7822 8.91993 11.1755C8.97931 11.4448 9.10684 11.6943 9.2903 11.9002C8.95529 12.1071 8.71408 12.4364 8.61787 12.8182C8.52167 13.2 8.57803 13.6043 8.77501 13.9453C8.81979 14.0306 8.87982 14.107 8.95214 14.1707C8.78261 14.2973 8.64286 14.4595 8.54271 14.6459C8.44256 14.8323 8.38444 15.0384 8.37243 15.2496C8.33148 15.511 8.37307 15.7787 8.49141 16.0154C8.60975 16.2521 8.79894 16.446 9.03265 16.5701C9.19684 16.6615 9.36939 16.737 9.54795 16.7955C9.20577 17.068 8.91649 17.4009 8.69449 17.7778C8.2456 18.6382 7.70575 19.448 7.08419 20.1932C7.06178 20.2667 7.06178 20.3452 7.08419 20.4187C7.14034 21.0747 7.35041 21.7082 7.69736 22.2678C8.04431 22.8274 8.51834 23.2973 9.08096 23.6393C9.94991 24.1819 10.9551 24.4667 11.9795 24.4605C12.4077 24.461 12.8345 24.4124 13.2516 24.3156C13.3381 24.2797 13.4113 24.2178 13.461 24.1385C14.1081 22.9262 14.8684 21.7778 15.7315 20.7085C15.7772 20.6513 15.8365 20.6066 15.9041 20.5784C15.9716 20.5503 16.0452 20.5397 16.118 20.5475L16.8909 20.6763H17.2291C17.7122 20.6763 18.8394 22.4638 19.564 24.1224C19.6079 24.2102 19.6824 24.2789 19.7734 24.3156C20.1932 24.4308 20.6263 24.4903 21.0616 24.4928C22.1648 24.4813 23.2359 24.1205 24.1212 23.4622C24.7204 23.0846 25.2117 22.5584 25.5475 21.9349C25.8833 21.3113 26.0521 20.6115 26.0375 19.9034L25.9408 19.8229ZM13.2355 7.21419L15.8281 6.34463C16.0851 6.27684 16.3549 6.2737 16.6134 6.33552C16.8719 6.39733 17.1111 6.52217 17.3096 6.6989L17.5673 6.94044L15.8603 8.05155C15.4157 8.2418 14.9277 8.30783 14.4484 8.24261C13.9692 8.17738 13.5166 7.98335 13.1389 7.68118C13.1008 7.65537 13.0723 7.61772 13.0577 7.57406C13.0432 7.53039 13.0434 7.48315 13.0584 7.43964C13.0659 7.38993 13.0861 7.34301 13.1172 7.30349C13.1482 7.26396 13.189 7.23319 13.2355 7.21419ZM10.7074 7.82611C10.8404 7.58661 11.055 7.40285 11.3122 7.30828C11.5693 7.2137 11.8518 7.2146 12.1083 7.31081L12.3499 7.40743C12.3337 7.56087 12.3578 7.71588 12.42 7.8571C12.4821 7.99832 12.5801 8.12086 12.7041 8.21259C13.1063 8.52102 13.5663 8.74553 14.0568 8.87281L15.184 9.69406C15.3631 9.78439 15.5012 9.93956 15.57 10.128C15.6388 10.3165 15.6332 10.5241 15.5544 10.7086C15.5095 10.8085 15.445 10.8985 15.3648 10.9732C15.2846 11.0478 15.1903 11.1057 15.0874 11.1433C14.9894 11.1904 14.8821 11.2149 14.7734 11.2149C14.6647 11.2149 14.5573 11.1904 14.4594 11.1433L11.1744 9.372C10.8999 9.22353 10.6925 8.97585 10.5946 8.67958C10.5529 8.53732 10.5413 8.3879 10.5607 8.24092C10.5801 8.09393 10.6301 7.95264 10.7074 7.82611ZM9.66067 10.4831C9.74008 10.2801 9.89554 10.116 10.094 10.0258C10.2925 9.93561 10.5183 9.92635 10.7235 10L11.0294 10.1611L14.089 11.7714L14.6687 12.1417C14.7981 12.23 14.8876 12.3656 14.9177 12.5193C14.9478 12.673 14.9162 12.8324 14.8297 12.963C14.7646 13.0575 14.6742 13.1318 14.5688 13.1773C14.4635 13.2229 14.3474 13.2379 14.2339 13.2206H14.1051L13.2355 12.8986L10.1116 11.6586C9.91051 11.5732 9.75084 11.4125 9.6666 11.2109C9.58236 11.0094 9.58024 10.7828 9.66067 10.5797V10.4831ZM9.66067 12.4638C9.76603 12.4125 9.88167 12.3859 9.99884 12.3859C10.116 12.3859 10.2316 12.4125 10.337 12.4638H10.3853L13.9602 13.8809H14.0407C14.1588 13.9511 14.2489 14.0601 14.2958 14.1892C14.3428 14.3183 14.3437 14.4597 14.2983 14.5894C14.2502 14.7345 14.1481 14.8555 14.0132 14.9274C13.8784 14.9993 13.721 15.0167 13.5737 14.9759L9.91832 13.9614C9.72485 13.9117 9.55672 13.792 9.44662 13.6253C9.33651 13.4587 9.29228 13.257 9.32251 13.0596C9.36962 12.8485 9.49657 12.6639 9.67677 12.5443L9.66067 12.4638ZM9.38692 16.0548C9.26862 16.0028 9.17109 15.9127 9.10982 15.7989C9.04855 15.6851 9.02706 15.5541 9.04876 15.4267C9.05416 15.3136 9.08437 15.203 9.13724 15.1029C9.19011 15.0027 9.26435 14.9153 9.35471 14.847C9.44385 14.7816 9.54679 14.7374 9.65565 14.7178C9.76451 14.6983 9.87639 14.7039 9.98273 14.7343H10.1277L11.9473 15.2174C11.6461 15.677 11.2142 16.0359 10.7074 16.248C10.2502 16.36 9.76764 16.2968 9.35471 16.0709L9.38692 16.0548ZM17.4384 19.6779C17.1032 19.8892 16.7019 19.9695 16.3112 19.9034C16.1074 19.8727 15.899 19.8985 15.7087 19.978C15.5185 20.0575 15.3537 20.1876 15.2323 20.3543C14.3769 21.4121 13.617 22.5437 12.9618 23.7359C11.7514 23.9489 10.5051 23.702 9.46744 23.0435C9.03625 22.7705 8.66912 22.4076 8.39119 21.9796C8.11326 21.5516 7.93109 21.0686 7.85713 20.5636C8.41396 19.8279 8.89926 19.0406 9.3064 18.2126C9.59886 17.7005 10.0515 17.2988 10.5946 17.0693L11.0133 16.8921C11.0799 16.8762 11.141 16.8428 11.1905 16.7955C11.7766 16.517 12.2649 16.068 12.5914 15.5073V15.4267L13.3161 15.6361C13.4336 15.6528 13.5528 15.6528 13.6703 15.6361C13.9352 15.6272 14.1914 15.5398 14.4064 15.3849C14.6215 15.2301 14.7856 15.0149 14.8781 14.7665C15.0061 14.4516 15.0061 14.0992 14.8781 13.7842C15.1634 13.6728 15.3982 13.4609 15.5383 13.1884C15.6495 12.9856 15.7009 12.7555 15.6867 12.5246C15.6724 12.2937 15.5931 12.0717 15.4578 11.8841C15.6509 11.8134 15.8276 11.7042 15.9771 11.563C16.1266 11.4218 16.2458 11.2516 16.3273 11.0628C16.4452 10.7203 16.4442 10.348 16.3244 10.0061C16.2046 9.66426 15.973 9.37277 15.6671 9.17877H15.5544L19.7573 6.42515C20.014 6.28647 20.3149 6.25434 20.5951 6.33569C20.8753 6.41704 21.1123 6.60534 21.2549 6.85993C21.3797 7.09968 21.4142 7.37629 21.3521 7.63936C21.2901 7.90243 21.1355 8.13444 20.9167 8.2931L19.8861 8.93722V9.06604H20.2726L21.2871 8.43803C21.466 8.35139 21.6698 8.33121 21.8622 8.38111C22.0546 8.431 22.223 8.54771 22.3373 8.71036C22.4515 8.87302 22.5042 9.07102 22.4858 9.26894C22.4675 9.46686 22.3793 9.6518 22.2371 9.79068L21.271 10.5636V10.6441H21.6574L21.9956 10.4026C22.0915 10.3317 22.2015 10.282 22.3181 10.257C22.4347 10.232 22.5554 10.2323 22.6719 10.2577C22.7881 10.2835 22.8979 10.3324 22.9947 10.4016C23.0915 10.4707 23.1734 10.5587 23.2355 10.6602C23.3377 10.8281 23.3775 11.0266 23.3481 11.2209C23.3186 11.4152 23.2218 11.593 23.0745 11.723L21.9956 12.6409V12.7536H22.2532L22.9457 12.2383C23.0284 12.16 23.1282 12.1018 23.2371 12.0683C23.346 12.0348 23.4612 12.0268 23.5737 12.0451C23.6856 12.0596 23.7928 12.0989 23.8876 12.1602C23.9823 12.2215 24.0621 12.3032 24.1212 12.3994C24.2537 12.5922 24.3177 12.8239 24.3031 13.0574C24.2886 13.2909 24.1961 13.5128 24.0407 13.6876C23.3197 14.7239 22.3934 15.6008 21.3193 16.2641C19.5157 17.3913 18.8072 17.4557 18.3724 18.2448C18.175 18.676 17.9024 19.0686 17.5673 19.4042C17.5259 19.5021 17.4717 19.5942 17.4062 19.6779H17.4384ZM23.8796 23.0918C22.8003 23.7808 21.4974 24.0287 20.2404 23.7842C19.7351 22.7683 19.072 21.8389 18.2758 21.0306H18.4207C19.6896 20.4635 20.9026 19.7788 22.0439 18.9855C22.4465 18.7118 22.8168 18.438 23.1389 18.1804C23.8681 19.0974 24.659 19.9636 25.5061 20.773C25.5061 21.0789 25.5061 22.1417 23.8958 23.1401L23.8796 23.0918Z" fill="white"/>
<path d="M44.7338 18.9372L48.4858 8.47021H46.489L43.832 16.6506L41.2072 8.47021H39.2104L42.9625 18.9372H44.7338Z" fill="white"/>
<path d="M52.2535 19.0821C52.8599 19.0845 53.4594 18.9525 54.0087 18.6956C54.5118 18.4545 54.9403 18.0817 55.2487 17.6167L54.3147 16.715C54.0902 17.0233 53.794 17.2724 53.4517 17.4407C53.1095 17.609 52.7314 17.6915 52.3501 17.6811C52.0894 17.6885 51.8298 17.6439 51.5865 17.5499C51.3432 17.4559 51.1211 17.3144 50.9331 17.1337C50.542 16.7174 50.3134 16.1745 50.2889 15.6039H55.3775V14.8953C55.4435 13.8662 55.1346 12.848 54.5079 12.029C54.1982 11.6878 53.8164 11.4198 53.3903 11.2443C52.9642 11.0689 52.5044 10.9904 52.0442 11.0145C51.4069 11.0162 50.7826 11.1946 50.2406 11.5298C49.6944 11.8715 49.2583 12.3635 48.9846 12.9469C48.6769 13.5847 48.5173 14.2838 48.5176 14.9919V15.2174C48.4929 15.7248 48.5716 16.2319 48.7487 16.708C48.9259 17.1841 49.1979 17.6193 49.5482 17.9871C49.8974 18.3488 50.3186 18.6332 50.7846 18.8218C51.2506 19.0105 51.7511 19.0991 52.2535 19.0821ZM50.8848 12.963C51.0291 12.8066 51.2029 12.6805 51.3963 12.5917C51.5896 12.503 51.7987 12.4534 52.0113 12.446C52.2239 12.4385 52.4359 12.4732 52.635 12.5481C52.8341 12.623 53.0164 12.7367 53.1714 12.8824C53.4676 13.2657 53.6314 13.7347 53.6384 14.219V14.3478H50.305C50.3357 13.8251 50.5269 13.3247 50.8525 12.9146L50.8848 12.963Z" fill="white"/>
<path d="M58.0824 13.6232C58.2236 13.323 58.4541 13.0736 58.7423 12.9093C59.0305 12.7451 59.3625 12.6738 59.6927 12.7053H60.4174V11.095C60.2169 11.0187 60.0039 10.9805 59.7894 10.9823C59.4332 10.981 59.0831 11.0742 58.7747 11.2524C58.4663 11.4307 58.2108 11.6875 58.0341 11.9968V11.1272H56.4238V18.905H58.163L58.0824 13.6232Z" fill="white"/>
<path d="M63.799 19.0821C64.1777 19.093 64.5542 19.0208 64.9019 18.8706C65.2497 18.7204 65.5603 18.4958 65.8119 18.2126V18.7279C65.8298 18.9807 65.7946 19.2345 65.7086 19.473C65.6227 19.7115 65.4878 19.9294 65.3127 20.1127C64.9309 20.4452 64.4331 20.6131 63.9279 20.5797C63.5439 20.5955 63.1615 20.5206 62.8118 20.3612C62.4621 20.2017 62.1549 19.9621 61.915 19.6618L61.0937 20.7085C61.4162 21.1251 61.8443 21.4476 62.3337 21.6425C62.8424 21.8638 63.3893 21.9841 63.944 21.9968C64.8796 22.0421 65.7967 21.7248 66.5044 21.1111C66.8216 20.7964 67.0699 20.4192 67.2335 20.0033C67.3971 19.5875 67.4723 19.1421 67.4544 18.6956V11.1755H65.8441V11.9485C65.5918 11.6408 65.2712 11.3962 64.9078 11.2341C64.5444 11.072 64.1483 10.9968 63.7507 11.0145C63.3071 10.9979 62.866 11.0887 62.465 11.2794C62.064 11.4701 61.7151 11.7549 61.448 12.1095C60.8855 12.9865 60.5864 14.0064 60.5864 15.0483C60.5864 16.0902 60.8855 17.1102 61.448 17.9871C61.7158 18.353 62.0718 18.6453 62.4828 18.8368C62.8938 19.0282 63.3466 19.1126 63.799 19.0821ZM62.9134 13.1401C63.0629 12.9245 63.2628 12.7488 63.4958 12.6281C63.7287 12.5074 63.9876 12.4455 64.2499 12.4477C64.5635 12.43 64.8754 12.5045 65.1472 12.6618C65.419 12.8192 65.6389 13.0526 65.7797 13.3333V16.7472C65.6386 17.0474 65.4081 17.2967 65.1199 17.461C64.8316 17.6253 64.4997 17.6966 64.1694 17.6651C63.9112 17.6664 63.6565 17.6057 63.4267 17.488C63.1969 17.3703 62.9987 17.1991 62.849 16.9887C62.4994 16.4426 62.3304 15.8004 62.3659 15.153C62.3335 14.4478 62.507 13.7484 62.8651 13.1401H62.9134Z" fill="white"/>
<path d="M72.3979 19.0821C73.0043 19.0845 73.6038 18.9525 74.1531 18.6957C74.6562 18.4545 75.0847 18.0817 75.3931 17.6168L74.4591 16.715C74.2361 17.021 73.9425 17.2687 73.6033 17.4369C73.2641 17.6051 72.8892 17.6889 72.5106 17.6812C72.2496 17.6913 71.9892 17.648 71.7455 17.5538C71.5018 17.4597 71.28 17.3167 71.0936 17.1337C70.6962 16.7215 70.4665 16.1761 70.4494 15.6039H75.5219V14.8953C75.5879 13.8662 75.279 12.848 74.6523 12.029C74.3457 11.6882 73.9668 11.4202 73.5433 11.2447C73.1199 11.0691 72.6625 10.9905 72.2047 11.0145C71.5605 11.0067 70.9277 11.1848 70.3822 11.5276C69.8366 11.8703 69.4015 12.3631 69.129 12.9469C68.8319 13.5871 68.6833 14.2862 68.6942 14.992V15.2174C68.6702 15.7234 68.7476 16.2291 68.9218 16.7047C69.096 17.1803 69.3636 17.6164 69.7087 17.9871C70.059 18.3429 70.4781 18.6235 70.9405 18.8118C71.4028 19 71.8988 19.092 72.3979 19.0821ZM71.0292 12.963C71.1735 12.8067 71.3473 12.6805 71.5407 12.5917C71.734 12.503 71.9431 12.4535 72.1557 12.446C72.3683 12.4385 72.5803 12.4732 72.7794 12.5481C72.9785 12.623 73.1608 12.7367 73.3158 12.8825C73.6185 13.2622 73.7831 13.7334 73.7828 14.219V14.3478H70.4656C70.5088 13.8252 70.7048 13.3268 71.0292 12.9147V12.963Z" fill="white"/>
<path d="M78.3563 7.90662H76.6172V18.9372H78.3563V7.90662Z" fill="white"/>
<path d="M81.7381 11.1594H79.999V18.9372H81.7381V11.1594Z" fill="white"/>
<path d="M80.8851 10.0644C81.017 10.0724 81.1492 10.0538 81.2737 10.0095C81.3982 9.96521 81.5125 9.89627 81.6097 9.80679C81.6975 9.72162 81.7659 9.61859 81.8103 9.50468C81.8548 9.39078 81.8742 9.26865 81.8674 9.14656C81.8725 9.02225 81.8523 8.8982 81.808 8.78194C81.7637 8.66567 81.6963 8.55962 81.6097 8.47024C81.512 8.38152 81.3976 8.31306 81.2732 8.26884C81.1488 8.22461 81.0169 8.2055 80.8851 8.21259C80.7532 8.20458 80.621 8.22327 80.4965 8.26754C80.372 8.31181 80.2577 8.38076 80.1605 8.47024C79.9885 8.65393 79.8909 8.89497 79.8867 9.14656C79.8868 9.39423 79.9853 9.63171 80.1605 9.80679C80.2577 9.89627 80.372 9.96521 80.4965 10.0095C80.621 10.0538 80.7532 10.0724 80.8851 10.0644Z" fill="white"/>
<path d="M84.1857 10.0645C84.3255 10.0804 84.4671 10.0656 84.6006 10.0211C84.7342 9.97658 84.8563 9.90345 84.9586 9.8068C85.1224 9.62564 85.214 9.39075 85.2163 9.14658C85.2108 8.89819 85.1198 8.6593 84.9586 8.47025C84.8541 8.37703 84.7316 8.3061 84.5987 8.2618C84.4658 8.2175 84.3253 8.20076 84.1857 8.2126C83.9489 8.1901 83.7127 8.2621 83.5287 8.41291C83.3448 8.56371 83.2278 8.78112 83.2034 9.01775V9.14658C83.2004 9.26821 83.2217 9.38922 83.2659 9.50256C83.3102 9.6159 83.3765 9.71932 83.461 9.8068C83.5588 9.89552 83.6732 9.96398 83.7976 10.0082C83.9219 10.0524 84.0539 10.0715 84.1857 10.0645Z" fill="white"/>
<path d="M81.8506 21.9485C82.1497 22.0307 82.4582 22.074 82.7685 22.0773C83.0795 22.0925 83.3903 22.0432 83.6813 21.9323C83.9723 21.8214 84.2372 21.6515 84.4593 21.4332C84.8828 20.9249 85.0959 20.2739 85.0551 19.6135V11.1755H83.3482V19.7101C83.3482 20.3382 83.0422 20.6602 82.4625 20.6602C82.2589 20.6769 82.0542 20.6769 81.8506 20.6602V21.9485Z" fill="white"/>
<path d="M93.1389 11.1594H91.0294L88.8877 13.591L88.3402 14.2673V7.90662H86.6011V18.9372H88.3402V16.409L89.1292 15.6039L91.432 18.9372H93.4449L90.2404 14.3961L93.1389 11.1594Z" fill="white"/>
<path d="M98.6625 18.9372H100.273V7.90662H98.5015V11.8841C98.2531 11.6012 97.9453 11.3767 97.6002 11.2264C97.255 11.0761 96.881 11.0037 96.5047 11.0145C96.071 11.0029 95.6408 11.0964 95.2511 11.2871C94.8613 11.4778 94.5235 11.76 94.2664 12.1095C93.6696 12.9474 93.3796 13.9653 93.4451 14.992C93.3865 16.0553 93.6809 17.1083 94.2825 17.9871C94.5345 18.3341 94.8668 18.615 95.251 18.8057C95.6352 18.9964 96.0598 19.0912 96.4886 19.0821C96.8873 19.0966 97.2839 19.0184 97.6472 18.8535C98.0104 18.6886 98.3304 18.4417 98.582 18.132L98.6625 18.9372ZM98.5015 16.6989C98.3726 16.9946 98.1579 17.2449 97.8851 17.4171C97.6124 17.5894 97.2941 17.6758 96.9717 17.6651C96.7169 17.6727 96.4645 17.6144 96.2388 17.4959C96.0132 17.3775 95.8219 17.2028 95.6835 16.9887C95.3473 16.4375 95.1846 15.7979 95.2165 15.153C95.1819 14.4404 95.3614 13.7338 95.7318 13.124C95.8716 12.9076 96.0655 12.7314 96.2942 12.6127C96.5229 12.4941 96.7787 12.4372 97.0361 12.4477C97.355 12.4342 97.6706 12.5159 97.943 12.6822C98.2153 12.8484 98.4322 13.0919 98.5659 13.3817L98.5015 16.6989Z" fill="white"/>
<path d="M102.688 10.0644C102.826 10.0802 102.965 10.0653 103.096 10.0207C103.226 9.97614 103.346 9.90308 103.445 9.80679C103.533 9.72162 103.601 9.6186 103.646 9.50469C103.69 9.39078 103.71 9.26865 103.703 9.14657C103.708 9.02226 103.688 8.89821 103.643 8.78194C103.599 8.66568 103.532 8.55963 103.445 8.47025C103.343 8.37828 103.223 8.30801 103.093 8.26372C102.963 8.21943 102.825 8.20204 102.688 8.2126C102.572 8.1992 102.454 8.20903 102.341 8.24154C102.229 8.27404 102.124 8.32858 102.032 8.40197C101.941 8.47536 101.865 8.56616 101.809 8.6691C101.753 8.77203 101.718 8.88507 101.706 9.00164V9.14657C101.699 9.26865 101.719 9.39078 101.763 9.50469C101.807 9.6186 101.876 9.72162 101.964 9.80679C102.061 9.89627 102.175 9.96522 102.3 10.0095C102.424 10.0538 102.556 10.0724 102.688 10.0644Z" fill="white"/>
<path d="M103.558 11.1594H101.819V18.9372H103.558V11.1594Z" fill="white"/>
<path d="M106.827 13.6232C106.968 13.323 107.198 13.0736 107.486 12.9093C107.775 12.7451 108.107 12.6738 108.437 12.7053H109.162V11.095C108.961 11.0187 108.748 10.9805 108.533 10.9823C108.177 10.981 107.827 11.0742 107.519 11.2524C107.21 11.4307 106.955 11.6875 106.778 11.9968V11.1433H105.168V18.9211H106.907L106.827 13.6232Z" fill="white"/>
<path d="M113.171 19.0821C113.778 19.0924 114.379 18.9601 114.926 18.6957C115.429 18.4545 115.858 18.0817 116.166 17.6168L115.232 16.715C115.01 17.0254 114.714 17.276 114.371 17.4445C114.028 17.6131 113.649 17.6944 113.268 17.6812C113.007 17.6885 112.747 17.6439 112.504 17.5499C112.261 17.4559 112.039 17.3144 111.851 17.1337C111.464 16.7158 111.241 16.1727 111.223 15.6039H116.295V14.8953C116.361 13.8662 116.052 12.848 115.425 12.029C115.12 11.6863 114.742 11.4171 114.318 11.2414C113.894 11.0657 113.436 10.9882 112.978 11.0145C112.335 11.0058 111.704 11.1837 111.161 11.5268C110.618 11.8698 110.186 12.3631 109.918 12.9469C109.607 13.5829 109.453 14.2841 109.467 14.992V15.2174C109.443 15.7248 109.521 16.2319 109.698 16.708C109.876 17.1841 110.148 17.6193 110.498 17.9871C110.845 18.3432 111.261 18.6242 111.721 18.8126C112.18 19.0009 112.674 19.0927 113.171 19.0821ZM111.834 12.963C111.979 12.8067 112.153 12.6805 112.346 12.5917C112.539 12.503 112.748 12.4535 112.961 12.446C113.174 12.4385 113.386 12.4732 113.585 12.5481C113.784 12.623 113.966 12.7367 114.121 12.8825C114.424 13.2622 114.588 13.7334 114.588 14.219V14.3478H111.239C111.282 13.8252 111.478 13.3268 111.802 12.9147L111.834 12.963Z" fill="white"/>
<path d="M120.482 19.0821C121.041 19.0951 121.595 18.9677 122.092 18.7117C122.556 18.4884 122.952 18.1434 123.235 17.7134C123.513 17.3155 123.67 16.8457 123.686 16.3607H122.076C122.069 16.5413 122.025 16.7186 121.948 16.8819C121.87 17.0453 121.761 17.1911 121.625 17.3108C121.319 17.5655 120.928 17.6975 120.53 17.6811C120.279 17.6986 120.027 17.6515 119.799 17.5444C119.57 17.4374 119.373 17.2738 119.226 17.0692C118.877 16.4996 118.714 15.8356 118.759 15.1691V14.8953C118.717 14.2444 118.881 13.5969 119.226 13.0435C119.379 12.8443 119.577 12.6837 119.803 12.5746C120.03 12.4656 120.279 12.4111 120.53 12.4155C120.732 12.4111 120.934 12.4473 121.122 12.5219C121.31 12.5966 121.481 12.7083 121.625 12.8502C121.909 13.1447 122.07 13.5362 122.076 13.9452H123.686C123.694 13.5358 123.614 13.1294 123.45 12.7541C123.286 12.3788 123.042 12.0435 122.736 11.7713C122.433 11.4926 122.078 11.2766 121.691 11.1357C121.304 10.9947 120.893 10.9316 120.482 10.9501C119.999 10.925 119.517 11.0089 119.07 11.1957C118.624 11.3825 118.226 11.6673 117.905 12.029C117.555 12.4332 117.29 12.9041 117.127 13.4133C116.964 13.9225 116.905 14.4595 116.955 14.9919V15.1691C116.887 16.2264 117.227 17.2696 117.905 18.0837C118.234 18.4309 118.635 18.7006 119.081 18.8733C119.527 19.046 120.005 19.1173 120.482 19.0821Z" fill="white"/>
<path d="M126.972 17.4396C126.843 17.2505 126.78 17.0239 126.794 16.7955V12.4638H128.195V11.1755H126.827V9.29147H125.071V11.1755H123.799V12.4799H125.071V16.876C125.071 18.3575 125.748 19.0982 127.084 19.0982C127.471 19.0932 127.855 19.0391 128.228 18.9372V17.5845C128.03 17.6083 127.83 17.6083 127.632 17.5845C127.518 17.6086 127.4 17.6081 127.286 17.5831C127.172 17.5582 127.065 17.5092 126.972 17.4396Z" fill="white"/>
<path d="M130.224 19.0177C130.363 19.0271 130.501 19.0076 130.632 18.9605C130.762 18.9134 130.881 18.8396 130.981 18.744C131.075 18.6592 131.148 18.5543 131.196 18.4372C131.243 18.3201 131.263 18.1937 131.255 18.0676C131.258 17.8098 131.16 17.5612 130.981 17.3752C130.765 17.1666 130.476 17.05 130.176 17.05C129.876 17.05 129.587 17.1666 129.371 17.3752C129.2 17.5646 129.107 17.8124 129.113 18.0676C129.106 18.196 129.127 18.3244 129.174 18.444C129.221 18.5636 129.294 18.6714 129.387 18.7601C129.501 18.8592 129.634 18.9333 129.778 18.9777C129.923 19.0221 130.075 19.0357 130.224 19.0177Z" fill="white"/>
<path d="M136.086 19.0821C136.645 19.0951 137.198 18.9678 137.696 18.7118C138.165 18.4888 138.565 18.144 138.855 17.7134C139.133 17.3155 139.29 16.8457 139.306 16.3607H137.599C137.589 16.5423 137.543 16.7201 137.463 16.8833C137.382 17.0466 137.27 17.192 137.132 17.3108C136.83 17.5618 136.446 17.6935 136.053 17.6812C135.8 17.6983 135.546 17.6513 135.315 17.5443C135.084 17.4374 134.884 17.274 134.733 17.0692C134.384 16.4996 134.221 15.8356 134.266 15.1691V14.8953C134.231 14.245 134.394 13.5994 134.733 13.0435C134.881 12.8508 135.071 12.6941 135.289 12.5854C135.506 12.4766 135.746 12.4185 135.989 12.4155C136.189 12.4075 136.389 12.4421 136.575 12.5171C136.761 12.592 136.929 12.7056 137.068 12.8503C137.358 13.1422 137.525 13.534 137.535 13.9453H139.145C139.168 13.5443 139.104 13.1431 138.96 12.7683C138.816 12.3935 138.593 12.0537 138.308 11.7714C137.69 11.2174 136.883 10.9233 136.053 10.9501C135.568 10.9225 135.082 11.0052 134.633 11.1921C134.184 11.379 133.783 11.6651 133.461 12.029C132.769 12.8546 132.428 13.9181 132.511 14.992V15.1691C132.443 16.2264 132.783 17.2696 133.461 18.0837C133.801 18.4293 134.211 18.6975 134.664 18.8698C135.117 19.0421 135.602 19.1145 136.086 19.0821Z" fill="white"/>
<path d="M143.51 19.0821C144.177 19.0948 144.835 18.9219 145.41 18.5829C145.959 18.2514 146.396 17.7636 146.666 17.182C146.97 16.544 147.119 15.8433 147.101 15.1369V14.7182C147.101 13.7224 146.727 12.7628 146.054 12.029C145.72 11.693 145.32 11.4294 144.88 11.2549C144.439 11.0803 143.967 10.9985 143.494 11.0145C142.837 11.0078 142.191 11.1804 141.626 11.5137C141.071 11.8428 140.628 12.3308 140.354 12.9147C140.042 13.5621 139.888 14.2737 139.903 14.992C139.806 16.0719 140.136 17.1468 140.821 17.9871C141.159 18.3579 141.577 18.6485 142.042 18.838C142.507 19.0274 143.008 19.1108 143.51 19.0821ZM142.125 13.1079C142.397 12.7445 142.802 12.5035 143.252 12.4371C143.701 12.3708 144.158 12.4845 144.524 12.7536C144.653 12.8555 144.767 12.9747 144.863 13.1079C145.234 13.6633 145.415 14.3246 145.378 14.992C145.424 15.6985 145.25 16.4019 144.879 17.0048C144.726 17.225 144.521 17.4036 144.282 17.5245C144.043 17.6454 143.778 17.7048 143.51 17.6973C143.241 17.7093 142.973 17.6537 142.731 17.5355C142.489 17.4174 142.281 17.2405 142.125 17.0209C141.768 16.4596 141.594 15.8014 141.626 15.1369C141.577 14.4302 141.752 13.7261 142.125 13.124V13.1079Z" fill="white"/>
<path d="M158.533 11.7713C158.289 11.5188 157.992 11.323 157.663 11.1977C157.335 11.0725 156.983 11.021 156.633 11.0467C156.168 11.0304 155.706 11.1309 155.29 11.3391C154.873 11.5473 154.516 11.8564 154.25 12.2383C154.054 11.8415 153.744 11.5126 153.359 11.2944C152.974 11.0762 152.533 10.9786 152.092 11.0145C151.67 10.9988 151.251 11.0775 150.863 11.2446C150.476 11.4118 150.131 11.6632 149.853 11.9807V11.1594H148.243V18.9372H149.982V13.3816C150.125 13.1121 150.342 12.8888 150.607 12.7377C150.872 12.5866 151.175 12.5139 151.48 12.5282C151.642 12.5079 151.806 12.5197 151.963 12.563C152.12 12.6063 152.267 12.6801 152.396 12.7804C152.525 12.8806 152.632 13.0052 152.713 13.147C152.793 13.2889 152.845 13.4452 152.865 13.6071C152.881 13.703 152.881 13.801 152.865 13.8969V19.0177H154.62V13.5749C154.708 13.2524 154.887 12.9618 155.135 12.7375C155.412 12.5131 155.762 12.3984 156.118 12.4155C156.309 12.4001 156.502 12.4236 156.685 12.4844C156.868 12.5453 157.036 12.6423 157.18 12.7697C157.303 12.9194 157.394 13.0918 157.449 13.277C157.504 13.4622 157.523 13.6564 157.502 13.8486V18.905H159.258V13.8003C159.269 13.0587 159.011 12.3382 158.533 11.7713Z" fill="white"/>
</svg>
