<?xml version="1.0" encoding="utf-8"?>
<svg id="Layer_1" data-name="Layer 1" viewBox="0 0 203.27 40.16" xmlns="http://www.w3.org/2000/svg">
  <defs>
    <style>.cls-1{fill:#fff;}</style>
  </defs>
  <title>vergelijkdirect-logo</title>
  <path class="cls-1" d="M7136.82,7181.51a7.21,7.21,0,0,0-6.22-3.59h-14.89a7.21,7.21,0,0,0-6.22,3.59l-7.45,12.9a7.19,7.19,0,0,0,0,7.18l7.45,12.9a7.21,7.21,0,0,0,6.22,3.59h14.89a7.21,7.21,0,0,0,6.22-3.59l7.45-12.9a7.19,7.19,0,0,0,0-7.18Zm5.38,18.88-7.45,12.9a4.81,4.81,0,0,1-4.15,2.4h-14.89a4.81,4.81,0,0,1-4.15-2.4l-7.45-12.9a4.8,4.8,0,0,1,0-4.78l7.45-12.9a4.81,4.81,0,0,1,4.15-2.4h14.89a4.81,4.81,0,0,1,4.15,2.4l7.45,12.9A4.8,4.8,0,0,1,7142.2,7200.39Z" transform="translate(-7101.08 -7177.92)" style="fill: rgb(33, 150, 243);"/>
  <path class="cls-1" d="M7135.39,7204.19a36,36,0,0,1-3.16-4c.62-.6,1.14-1.15,1.54-1.6a2.25,2.25,0,0,0,.19-2.8,1.94,1.94,0,0,0-1.31-.82,2,2,0,0,0-1.3-2.87,2,2,0,0,0,0-2.4,2,2,0,0,0-1.28-.78,3.16,3.16,0,0,0,.17-.52,2.33,2.33,0,0,0-3.51-2.44l-1.55,1-.52-.47a2.93,2.93,0,0,0-2.81-.65l-3.39,1.13a1.2,1.2,0,0,0-.47.29l-.38-.15a2.41,2.41,0,0,0-3,1.07,2.37,2.37,0,0,0-.21,1.86,2.41,2.41,0,0,0,.21.5,2,2,0,0,0-1,3.31l-.07,0a2,2,0,0,0-.37,3.06l-.09.05a1.89,1.89,0,0,0-.76,1.41,1.65,1.65,0,0,0,.86,1.7,2.53,2.53,0,0,0,.69.3,4.61,4.61,0,0,0-1.13,1.28s0,0,0,0a17.87,17.87,0,0,1-2,3.14.45.45,0,0,0-.1.31,5.43,5.43,0,0,0,2.6,4.12,6.85,6.85,0,0,0,3.77,1.07,7.38,7.38,0,0,0,1.65-.18.46.46,0,0,0,.29-.24,28.23,28.23,0,0,1,2.94-4.45l0,0a.55.55,0,0,1,.52-.22l1,.17a3.11,3.11,0,0,0,.43,0h0c.62,0,2.08,2.32,3,4.48a.49.49,0,0,0,.26.25,5.51,5.51,0,0,0,1.69.24,7,7,0,0,0,4-1.34c3-2.11,2.51-4.54,2.49-4.64A.45.45,0,0,0,7135.39,7204.19Zm-16.61-16.37,3.38-1.13a2,2,0,0,1,1.92.45l.34.32-2.23,1.46a3.48,3.48,0,0,1-3.54-.5.32.32,0,0,1-.11-.31A.36.36,0,0,1,7118.78,7187.82Zm-3.3.8a1.5,1.5,0,0,1,1.83-.67l.32.12a1.23,1.23,0,0,0,.45,1.06,5,5,0,0,0,1.77.85.23.23,0,0,0,.07.07l1.48,1.09.06,0a1,1,0,0,1,.48,1.31,1,1,0,0,1-.6.57,1,1,0,0,1-.83-.06l-4.43-2.33a1.49,1.49,0,0,1-.73-.9A1.44,1.44,0,0,1,7115.48,7188.62Zm-1.36,3.46a1.09,1.09,0,0,1,1.4-.63l.39.15,4,2.12c.07,0,.4.25.76.48a.75.75,0,0,1,.26,1,.76.76,0,0,1-.83.4l-.16-.07-1.13-.43-4.08-1.61A1.09,1.09,0,0,1,7114.12,7192.08Zm0,2.58a1,1,0,0,1,.87-.11h0l4.66,1.84.09,0a.79.79,0,0,1,.35.94l0,0a.76.76,0,0,1-.93.49l-4.77-1.31a1,1,0,0,1-.76-1.18A1,1,0,0,1,7114.1,7194.66Zm-.37,4.67a.75.75,0,0,1-.43-.82v0a1,1,0,0,1,1.23-.91l.18,0,2.36.64a3.62,3.62,0,0,1-1.59,1.33h0A2.47,2.47,0,0,1,7113.73,7199.33Zm10,5.18-1-.16a1.44,1.44,0,0,0-1.39.57,29.28,29.28,0,0,0-2.94,4.42,6.44,6.44,0,0,1-4.5-.81,4.64,4.64,0,0,1-2.18-3.23,18.35,18.35,0,0,0,1.95-3.18,3.63,3.63,0,0,1,1.69-1.48l.53-.23h0a1,1,0,0,0,.26-.12,4.53,4.53,0,0,0,1.82-1.68l0-.1.93.25a1.41,1.41,0,0,0,.45.07,1.68,1.68,0,0,0,1.58-1.12v0a1.67,1.67,0,0,0,0-1.28,1.67,1.67,0,0,0,.76-2.48,1.92,1.92,0,0,0,1.13-1.07,2,2,0,0,0-.87-2.45l-.14-.11,5.47-3.58a1.43,1.43,0,0,1,2.14,1.49,1.48,1.48,0,0,1-.64.94l-1.34.83,0,0,0,0,0,0,0,0,0,0s0,0,0,0a.06.06,0,0,0,0,0s0,0,0,0v0a.11.11,0,0,0,0,.05v.09s0,0,0,0,0,0,0,0,0,0,0,.05,0,0,0,0h0a.13.13,0,0,0,.06.07l0,0,.06.05h0l.08,0h.26l.1,0,1.33-.82a1.09,1.09,0,0,1,1.44.29,1.08,1.08,0,0,1-.19,1.48l-1.26,1,0,0s0,0,0,0l0,0,0,0s0,0,0,0,0,0,0,0,0,0,0,0v0a.09.09,0,0,0,0,.05v0s0,0,0,0a.09.09,0,0,0,0,.05.2.2,0,0,0,0,.08s0,0,0,0,0,0,0,0h0l0,0,0,0,0,0,.05,0,0,0,0,0h.13a.31.31,0,0,0,.13,0h0a.39.39,0,0,0,.11-.06l.44-.31a1.12,1.12,0,0,1,1.41,1.73l-1.39,1.18,0,0,0,0,0,0a.05.05,0,0,1,0,0s0,0,0,0,0,0,0,0a.06.06,0,0,0,0,0,.08.08,0,0,0,0,0v.14s0,0,0,0,0,0,0,0,0,0,0,0l0,0s0,0,0,0h0l0,0,0,0,0,0,0,0,0,0h.18l.13,0h0a.39.39,0,0,0,.11-.06l.9-.68a1.05,1.05,0,0,1,.82-.23,1,1,0,0,1,.72.44,1.35,1.35,0,0,1-.11,1.68,33.2,33.2,0,0,1-3.53,3.36,27,27,0,0,1-4.58,3A2,2,0,0,1,7123.71,7204.51Zm8.8,4a6.53,6.53,0,0,1-4.72.89,13.62,13.62,0,0,0-2.57-3.58l.19-.07a29.34,29.34,0,0,0,4.74-2.66c.5-.35,1-.71,1.41-1a33.12,33.12,0,0,0,3.09,3.39C7134.69,7205.81,7134.63,7207.2,7132.51,7208.49Z" transform="translate(-7101.08 -7177.92)" style="fill: rgb(33, 150, 243);"/>
  <polygon class="cls-1" points="53.022 25.728 57.922 12.118 55.322 12.118 51.862 22.768 48.442 12.118 45.842 12.118 50.732 25.728 53.022 25.728" style="fill: rgb(33, 150, 243);"/>
  <path class="cls-1" d="M 62.802 25.918 C 63.59 25.928 64.37 25.757 65.082 25.418 C 65.733 25.094 66.291 24.609 66.702 24.008 L 65.472 22.838 C 64.882 23.647 63.933 24.118 62.932 24.098 C 62.241 24.12 61.572 23.856 61.082 23.368 C 60.566 22.828 60.27 22.115 60.252 21.368 L 66.862 21.368 L 66.862 20.458 C 66.946 19.116 66.545 17.789 65.732 16.718 C 64.921 15.822 63.749 15.34 62.542 15.408 C 61.708 15.398 60.89 15.627 60.182 16.068 C 59.47 16.52 58.901 17.165 58.542 17.928 C 58.138 18.77 57.936 19.694 57.952 20.628 L 57.952 20.908 C 57.889 22.251 58.377 23.562 59.302 24.538 C 60.227 25.463 61.494 25.963 62.802 25.918 Z M 61.022 17.918 C 61.402 17.486 61.957 17.247 62.532 17.268 C 63.084 17.235 63.622 17.447 64.002 17.848 C 64.397 18.338 64.613 18.949 64.612 19.578 L 64.612 19.748 L 60.282 19.748 C 60.339 19.071 60.597 18.427 61.022 17.898 L 61.022 17.918 Z" style="fill: rgb(33, 150, 243);"/>
  <path class="cls-1" d="M 70.412 18.808 C 70.784 18 71.627 17.518 72.512 17.608 C 72.824 17.609 73.135 17.636 73.442 17.688 L 73.442 15.558 C 73.183 15.461 72.908 15.417 72.632 15.428 C 71.689 15.413 70.814 15.916 70.352 16.738 L 70.302 15.608 L 68.132 15.608 L 68.132 25.728 L 70.402 25.728 L 70.412 18.808 Z" style="fill: rgb(33, 150, 243);"/>
  <path class="cls-1" d="M 77.852 25.918 C 78.845 25.957 79.804 25.554 80.472 24.818 L 80.472 25.508 C 80.519 26.175 80.279 26.83 79.812 27.308 C 79.319 27.733 78.682 27.951 78.032 27.918 C 77.026 27.926 76.074 27.468 75.452 26.678 L 74.372 28.038 C 74.794 28.575 75.349 28.992 75.982 29.248 C 76.669 29.551 77.411 29.708 78.162 29.708 C 79.382 29.773 80.58 29.36 81.502 28.558 C 82.358 27.746 82.812 26.596 82.742 25.418 L 82.742 15.608 L 80.732 15.608 L 80.632 16.608 C 79.963 15.804 78.956 15.36 77.912 15.408 C 76.764 15.375 75.67 15.896 74.972 16.808 C 74.184 17.902 73.793 19.232 73.862 20.578 C 73.779 21.972 74.178 23.353 74.992 24.488 C 75.664 25.391 76.726 25.922 77.852 25.918 Z M 76.732 18.228 C 77.12 17.646 77.783 17.308 78.482 17.338 C 79.315 17.303 80.093 17.751 80.482 18.488 L 80.482 22.938 C 80.094 23.68 79.319 24.137 78.482 24.118 C 77.792 24.143 77.138 23.81 76.752 23.238 C 76.303 22.521 76.086 21.683 76.132 20.838 C 76.067 19.928 76.276 19.019 76.732 18.228 Z" style="fill: rgb(33, 150, 243);"/>
  <path class="cls-1" d="M 89.052 25.918 C 89.84 25.928 90.62 25.757 91.332 25.418 C 91.983 25.094 92.541 24.609 92.952 24.008 L 91.722 22.838 C 91.132 23.647 90.183 24.118 89.182 24.098 C 88.491 24.12 87.822 23.856 87.332 23.368 C 86.816 22.828 86.52 22.115 86.502 21.368 L 93.112 21.368 L 93.112 20.458 C 93.196 19.116 92.795 17.789 91.982 16.718 C 91.171 15.822 89.999 15.34 88.792 15.408 C 87.958 15.398 87.14 15.627 86.432 16.068 C 85.72 16.52 85.151 17.165 84.792 17.928 C 84.391 18.771 84.193 19.695 84.212 20.628 L 84.212 20.908 C 84.145 22.25 84.629 23.561 85.552 24.538 C 86.477 25.463 87.744 25.963 89.052 25.918 Z M 87.272 17.918 C 87.653 17.487 88.207 17.249 88.782 17.268 C 89.336 17.237 89.876 17.449 90.262 17.848 C 90.649 18.342 90.861 18.951 90.862 19.578 L 90.862 19.748 L 86.532 19.748 C 86.594 19.073 86.851 18.43 87.272 17.898 L 87.272 17.918 Z" style="fill: rgb(33, 150, 243);"/>
  <rect class="cls-1" x="94.532" y="11.368" width="2.27" height="14.36" style="fill: rgb(33, 150, 243);"/>
  <path class="cls-1" d="M 100.092 14.228 C 100.459 14.267 100.824 14.142 101.092 13.888 C 101.318 13.664 101.441 13.356 101.432 13.038 C 101.443 12.714 101.32 12.399 101.092 12.168 C 100.545 11.7 99.739 11.7 99.192 12.168 C 98.97 12.402 98.852 12.716 98.862 13.038 C 98.854 13.354 98.972 13.66 99.192 13.888 C 99.435 14.116 99.759 14.238 100.092 14.228 Z"/>
  <rect class="cls-1" x="98.942" y="15.608" width="2.27" height="10.12" style="fill: rgb(33, 150, 243);"/>
  <path class="cls-1" d="M 101.352 29.658 C 101.747 29.762 102.153 29.816 102.562 29.818 C 103.393 29.869 104.208 29.572 104.812 28.998 C 105.37 28.339 105.65 27.489 105.592 26.628 L 105.592 15.628 L 103.312 15.628 L 103.312 26.728 C 103.312 27.558 102.912 27.968 102.152 27.968 C 101.883 27.971 101.614 27.941 101.352 27.878 L 101.352 29.658 Z" style="fill: rgb(33, 150, 243);"/>
  <path class="cls-1" d="M 104.402 14.228 C 104.752 14.252 105.096 14.129 105.352 13.888 C 105.578 13.664 105.701 13.356 105.692 13.038 C 105.703 12.714 105.58 12.399 105.352 12.168 C 104.805 11.7 103.999 11.7 103.452 12.168 C 103.23 12.402 103.112 12.716 103.122 13.038 C 103.114 13.354 103.232 13.66 103.452 13.888 C 103.707 14.129 104.052 14.252 104.402 14.228 Z"/>
  <polygon class="cls-1" points="116.042 15.608 113.312 15.608 110.522 18.758 109.812 19.648 109.812 11.368 107.532 11.368 107.532 25.728 109.812 25.728 109.812 22.428 110.822 21.388 113.822 25.728 116.452 25.728 112.282 19.828 116.042 15.608" style="fill: rgb(33, 150, 243);"/>
  <path class="cls-1" d="M 123.252 25.728 L 125.252 25.728 L 125.252 11.368 L 122.982 11.368 L 122.982 16.548 C 122.328 15.803 121.373 15.392 120.382 15.428 C 119.24 15.395 118.154 15.921 117.472 16.838 C 116.706 17.938 116.326 19.26 116.392 20.598 C 116.314 21.981 116.701 23.351 117.492 24.488 C 118.157 25.406 119.229 25.94 120.362 25.918 C 121.414 25.959 122.423 25.499 123.082 24.678 L 123.252 25.728 Z M 123.032 22.818 C 122.674 23.596 121.888 24.087 121.032 24.068 C 120.355 24.095 119.714 23.765 119.342 23.198 C 118.91 22.471 118.705 21.632 118.752 20.788 C 118.689 19.871 118.898 18.957 119.352 18.158 C 119.735 17.599 120.374 17.271 121.052 17.288 C 121.902 17.251 122.69 17.729 123.052 18.498 L 123.032 22.818 Z" style="fill: rgb(33, 150, 243);"/>
  <rect class="cls-1" x="127.342" y="15.608" width="2.27" height="10.12" style="fill: rgb(33, 150, 243);"/>
  <path class="cls-1" d="M 128.482 14.228 C 128.832 14.252 129.176 14.129 129.432 13.888 C 129.658 13.664 129.781 13.356 129.772 13.038 C 129.783 12.714 129.66 12.399 129.432 12.168 C 128.885 11.7 128.079 11.7 127.532 12.168 C 127.31 12.402 127.192 12.716 127.202 13.038 C 127.194 13.354 127.312 13.66 127.532 13.888 C 127.787 14.129 128.132 14.252 128.482 14.228 Z"/>
  <path class="cls-1" d="M 133.872 18.808 C 134.245 17.997 135.094 17.514 135.982 17.608 C 136.29 17.609 136.598 17.636 136.902 17.688 L 136.902 15.558 C 136.647 15.462 136.375 15.418 136.102 15.428 C 135.158 15.409 134.281 15.913 133.822 16.738 L 133.762 15.608 L 131.592 15.608 L 131.592 25.728 L 133.862 25.728 L 133.872 18.808 Z" style="fill: rgb(33, 150, 243);"/>
  <path class="cls-1" d="M 142.142 25.918 C 142.927 25.929 143.704 25.758 144.412 25.418 C 145.068 25.097 145.63 24.611 146.042 24.008 L 144.812 22.838 C 144.222 23.647 143.273 24.118 142.272 24.098 C 141.581 24.12 140.912 23.856 140.422 23.368 C 139.902 22.829 139.603 22.116 139.582 21.368 L 146.202 21.368 L 146.202 20.458 C 146.286 19.116 145.885 17.789 145.072 16.718 C 144.261 15.822 143.089 15.34 141.882 15.408 C 140.168 15.384 138.601 16.372 137.882 17.928 C 137.478 18.77 137.276 19.694 137.292 20.628 L 137.292 20.908 C 137.229 22.251 137.717 23.562 138.642 24.538 C 139.567 25.463 140.834 25.963 142.142 25.918 Z M 140.362 17.918 C 140.742 17.486 141.297 17.247 141.872 17.268 C 142.424 17.235 142.962 17.447 143.342 17.848 C 143.737 18.338 143.953 18.949 143.952 19.578 L 143.952 19.748 L 139.622 19.748 C 139.679 19.071 139.937 18.427 140.362 17.898 L 140.362 17.918 Z" style="fill: rgb(33, 150, 243);"/>
  <path class="cls-1" d="M 151.662 25.918 C 152.357 25.917 153.042 25.752 153.662 25.438 C 154.264 25.143 154.78 24.699 155.162 24.148 C 155.52 23.625 155.724 23.012 155.752 22.378 L 153.612 22.378 C 153.589 22.853 153.372 23.298 153.012 23.608 C 152.616 23.943 152.11 24.117 151.592 24.098 C 150.922 24.132 150.28 23.828 149.882 23.288 C 149.432 22.554 149.225 21.696 149.292 20.838 L 149.292 20.478 C 149.227 19.625 149.437 18.773 149.892 18.048 C 150.29 17.515 150.927 17.215 151.592 17.248 C 152.122 17.23 152.636 17.433 153.012 17.808 C 153.387 18.191 153.602 18.702 153.612 19.238 L 155.752 19.238 C 155.752 18.191 155.318 17.192 154.552 16.478 C 153.747 15.758 152.691 15.381 151.612 15.428 C 150.34 15.365 149.107 15.875 148.252 16.818 C 147.386 17.846 146.942 19.165 147.012 20.508 L 147.012 20.748 C 146.932 22.124 147.379 23.479 148.262 24.538 C 149.132 25.483 150.379 25.989 151.662 25.918 Z" style="fill: rgb(33, 150, 243);"/>
  <path class="cls-1" d="M 160.102 23.778 C 159.928 23.534 159.846 23.236 159.872 22.938 L 159.872 17.298 L 161.662 17.298 L 161.662 15.608 L 159.872 15.608 L 159.872 13.148 L 157.602 13.148 L 157.602 15.608 L 155.932 15.608 L 155.932 17.298 L 157.602 17.298 L 157.602 23.028 C 157.602 24.948 158.472 25.918 160.222 25.918 C 160.727 25.916 161.228 25.842 161.712 25.698 L 161.712 23.938 C 161.454 24.006 161.188 24.039 160.922 24.038 C 160.624 24.07 160.327 23.976 160.102 23.778 Z" style="fill: rgb(33, 150, 243);"/>
  <path class="cls-1" d="M 164.332 25.828 C 164.7 25.86 165.064 25.733 165.332 25.478 C 165.563 25.244 165.69 24.927 165.682 24.598 C 165.691 24.263 165.564 23.939 165.332 23.698 C 165.065 23.441 164.701 23.31 164.332 23.338 C 163.962 23.307 163.597 23.439 163.332 23.698 C 163.099 23.939 162.973 24.263 162.982 24.598 C 162.97 24.932 163.101 25.256 163.342 25.488 C 163.61 25.735 163.969 25.858 164.332 25.828 Z" style="fill: rgb(33, 150, 243);"/>
  <path class="cls-1" d="M 171.972 25.918 C 172.667 25.918 173.353 25.754 173.972 25.438 C 174.574 25.143 175.09 24.699 175.472 24.148 C 175.834 23.627 176.039 23.012 176.062 22.378 L 173.922 22.378 C 173.899 22.853 173.682 23.298 173.322 23.608 C 172.933 23.947 172.428 24.123 171.912 24.098 C 171.239 24.135 170.592 23.831 170.192 23.288 C 169.746 22.552 169.54 21.696 169.602 20.838 L 169.602 20.478 C 169.54 19.624 169.754 18.772 170.212 18.048 C 170.61 17.515 171.247 17.215 171.912 17.248 C 172.439 17.232 172.949 17.435 173.322 17.808 C 173.701 18.188 173.916 18.701 173.922 19.238 L 176.062 19.238 C 176.066 18.193 175.635 17.193 174.872 16.478 C 174.065 15.761 173.011 15.384 171.932 15.428 C 170.657 15.364 169.421 15.874 168.562 16.818 C 167.703 17.85 167.263 19.167 167.332 20.508 L 167.332 20.748 C 167.25 22.123 167.693 23.478 168.572 24.538 C 169.443 25.482 170.69 25.988 171.972 25.918 Z" style="fill: rgb(33, 150, 243);"/>
  <path class="cls-1" d="M 181.622 25.918 C 182.489 25.932 183.344 25.708 184.092 25.268 C 184.805 24.835 185.375 24.202 185.732 23.448 C 186.13 22.611 186.328 21.694 186.312 20.768 L 186.312 20.228 C 186.304 18.93 185.812 17.682 184.932 16.728 C 184.057 15.846 182.853 15.371 181.612 15.418 C 180.752 15.399 179.903 15.621 179.162 16.058 C 178.438 16.489 177.86 17.126 177.502 17.888 C 177.101 18.724 176.899 19.641 176.912 20.568 L 176.912 20.678 C 176.843 22.063 177.304 23.422 178.202 24.478 C 179.073 25.44 180.325 25.967 181.622 25.918 Z M 179.832 18.128 C 180.236 17.555 180.901 17.224 181.602 17.248 C 182.312 17.228 182.985 17.566 183.392 18.148 C 183.868 18.866 184.099 19.718 184.052 20.578 C 184.108 21.499 183.885 22.416 183.412 23.208 C 182.507 24.39 180.726 24.39 179.822 23.208 C 179.351 22.481 179.123 21.623 179.172 20.758 C 179.109 19.834 179.34 18.913 179.832 18.128 Z" style="fill: rgb(33, 150, 243);"/>
  <path class="cls-1" d="M 201.242 16.348 C 200.587 15.691 199.677 15.354 198.752 15.428 C 197.52 15.373 196.347 15.959 195.652 16.978 C 195.138 15.934 194.031 15.317 192.872 15.428 C 191.76 15.375 190.685 15.831 189.952 16.668 L 189.892 15.608 L 187.732 15.608 L 187.732 25.728 L 190.002 25.728 L 190.002 18.398 C 190.361 17.671 191.123 17.233 191.932 17.288 C 192.976 17.145 193.876 18.021 193.762 19.068 L 193.762 25.728 L 196.032 25.728 L 196.032 18.788 C 196.147 18.363 196.387 17.983 196.722 17.698 C 197.08 17.417 197.527 17.272 197.982 17.288 C 198.491 17.238 198.997 17.401 199.382 17.738 C 199.696 18.138 199.846 18.642 199.802 19.148 L 199.802 25.728 L 202.072 25.728 L 202.072 19.078 C 202.14 18.097 201.845 17.125 201.242 16.348 Z" style="fill: rgb(33, 150, 243);"/>
  <path class="cls-1" d="M 99.907 14.612 C 100.275 14.644 100.639 14.517 100.907 14.262 C 101.138 14.028 101.265 13.711 101.257 13.382 C 101.266 13.047 101.139 12.723 100.907 12.482 C 100.64 12.225 100.276 12.094 99.907 12.122 C 99.537 12.091 99.172 12.223 98.907 12.482 C 98.674 12.723 98.548 13.047 98.557 13.382 C 98.545 13.716 98.676 14.04 98.917 14.272 C 99.185 14.519 99.544 14.642 99.907 14.612 Z" style="fill: rgb(33, 150, 243);"/>
  <path class="cls-1" d="M 104.401 14.497 C 104.769 14.529 105.133 14.402 105.401 14.147 C 105.632 13.913 105.759 13.596 105.751 13.267 C 105.76 12.932 105.633 12.608 105.401 12.367 C 105.134 12.11 104.77 11.979 104.401 12.007 C 104.031 11.976 103.666 12.108 103.401 12.367 C 103.168 12.608 103.042 12.932 103.051 13.267 C 103.039 13.601 103.17 13.925 103.411 14.157 C 103.679 14.404 104.038 14.527 104.401 14.497 Z" style="fill: rgb(33, 150, 243);"/>
  <path class="cls-1" d="M 128.369 14.612 C 128.737 14.644 129.101 14.517 129.369 14.262 C 129.6 14.028 129.727 13.711 129.719 13.382 C 129.728 13.047 129.601 12.723 129.369 12.482 C 129.102 12.225 128.738 12.094 128.369 12.122 C 127.999 12.091 127.634 12.223 127.369 12.482 C 127.136 12.723 127.01 13.047 127.019 13.382 C 127.007 13.716 127.138 14.04 127.379 14.272 C 127.647 14.519 128.006 14.642 128.369 14.612 Z" style="fill: rgb(33, 150, 243);"/>
</svg>